# xmcd
# 
# Track frame offsets:
#     150
#     8167
#     21710
#     36385
#     43932
#     54987
#     70382
#     83625
#     104122
#     116120
#     130787
#     141627
#     156034
#     171475
# 
# Disc length: 2477
# 
# Revision: 1
# Processed by: cddbd v1.5.2PL0 Copyright (c) Steve Scherf et al.
# Submitted via: fre:ac v1.0.31
# 
DISCID=d409ab0e
DTITLE=Red, White and Blue(Grass) - Guaranteed
DYEAR=1973
DGENRE=Bluegrass
TTITLE0=High Ground
TTITLE1=July, You're a Woman
TTITLE2=The Lovin's Over
TTITLE3=Whittlin'
TTITLE4=Little Bessie
TTITLE5=Ginseng Sullivan
TTITLE6=Johnson's Crook
TTITLE7=Linda Ann
TTITLE8=Make Me a Pallet
TTITLE9=Nine Years Waltz
TTITLE10=I'll Sail Away
TTITLE11=Duelin' Banjos
TTITLE12=Rosie
TTITLE13=Love the One You're With
EXTD=
EXTT0=
EXTT1=
EXTT2=
EXTT3=
EXTT4=
EXTT5=
EXTT6=
EXTT7=
EXTT8=
EXTT9=
EXTT10=
EXTT11=
EXTT12=
EXTT13=
PLAYORDER=
